<svg xmlns="http://www.w3.org/2000/svg" viewBox="0 0 1024 1024"><defs><linearGradient id="n" x1="0" y1="0" x2="0" y2="1"><stop offset="0" stop-color="#0E1650"/><stop offset="1" stop-color="#2743D6"/></linearGradient><linearGradient id="g" x1="0" y1="0" x2="0" y2="1"><stop offset="0" stop-color="#F7D38E"/><stop offset="1" stop-color="#E9AE4E"/></linearGradient></defs><rect width="1024" height="1024" rx="224" fill="url(#n)"/><path d="M691 215L702 267L716 264L732 280L735 312L745 323L747 353L754 369L800 397L803 402L799 404L814 426L819 444L824 447L826 438L835 447L838 444L841 467L860 481L886 522L885 549L895 581L882 642L873 664L850 689L840 720L828 738L823 775L814 781L783 784L763 800L750 802L755 804L754 811L734 797L736 791L726 797L721 793L729 788L725 783L698 804L677 794L657 794L637 783L625 769L624 750L609 733L615 733L615 728L594 733L600 715L592 702L584 723L568 725L571 718L578 718L580 701L589 689L586 667L575 690L559 699L549 712L550 719L544 719L534 711L540 711L536 697L526 682L518 680L516 666L456 643L413 648L381 660L354 661L321 676L307 696L235 697L228 706L196 721L170 720L141 704L140 687L148 690L154 680L154 647L142 623L138 591L124 568L122 552L105 527L108 524L113 535L118 534L110 514L116 525L118 523L121 530L125 529L125 519L110 488L121 432L124 445L135 431L174 405L188 407L221 391L258 382L284 350L280 337L284 326L296 313L308 337L308 326L313 328L314 323L306 314L309 308L331 312L324 310L329 300L326 303L324 298L325 292L330 287L337 291L333 285L343 284L339 275L348 265L349 271L356 270L357 259L367 263L373 254L384 260L398 276L396 289L406 276L415 279L418 285L419 279L427 284L427 278L431 278L422 268L446 225L451 228L459 217L462 222L487 218L486 208L474 204L469 200L472 198L532 220L549 212L545 220L550 219L552 225L561 215L569 223L560 242L549 244L550 258L540 280L595 319L610 323L614 332L630 341L639 339L645 334L657 305L661 283L658 255L661 236L667 233L662 223L671 192L680 188L685 212L691 215ZM728 847L752 855L790 848L792 878L790 873L786 879L785 899L772 891L763 909L747 907L746 904L751 903L736 894L731 878L736 884L737 881L722 860L721 844L728 847Z" fill="url(#g)"/><path d="M806,116L824.2,189.8L898,208L824.2,226.2L806,300L787.8,226.2L714,208L787.8,189.8Z" fill="#F6F4EF"/></svg>
